<svg width="480" height="270" viewBox="0 0 480 270" xmlns="http://www.w3.org/2000/svg"><title>online-courses-cover</title><g id="Home" fill="none" fill-rule="evenodd"><g id="online-courses-cover"><path id="Background" fill="#89C9E5" d="M0 0h480v270H0z"/><g id="hat-icon"><path d="M100.5 0C44.996 0 0 44.994 0 100.498 0 156.002 44.996 201 100.5 201c55.502 0 100.5-44.998 100.5-100.502S156.002 0 100.5 0z" id="Shape" fill="#EDEDED" transform="translate(140 35)"/><path d="M34.17 122.606v-21.424L19.83 94.58c-2.343-1.17-2.343-3.07 0-4.24l76.407-35.18c2.34-1.17 6.136-1.17 8.48 0l76.408 35.18c2.34 1.17 2.34 3.07 0 4.24L132.49 116.97c6.15 3.15 9.858 7.22 9.858 11.664 0 9.992-18.737 18.09-41.848 18.09-23.113 0-41.848-8.098-41.848-18.09 0-4.44 3.7-8.505 9.837-11.653l-30.3-13.95v19.573c0 10.56 6.03 18.092 6.03 18.092l-12.06-2.01s1.87-4.533 2.01-16.082z" id="Combined-Shape" fill="#2B414D" transform="translate(140 35)"/><path d="M36.18 116.576a6.03 6.03 0 0 1 0 12.06 6.03 6.03 0 0 1 0-12.06z" id="Shape" fill="#475F6C" transform="translate(140 35)"/><path d="M100.5 110.546c23.11 0 41.848 8.098 41.848 18.09v.002l.067.17-3.725-28.31c0-8.88-17.1-16.08-38.19-16.08-21.04 0-38.102 7.166-38.182 16.018h-.008l-3.405 26.244c2.26-9.07 20.014-16.134 41.595-16.134z" id="Shape" fill="#455E6B" transform="translate(140 35)"/></g></g></g></svg>